<svg width="41" height="26" viewBox="0 0 41 26" fill="none" xmlns="http://www.w3.org/2000/svg">
<path d="M6.98693 2.14868C6.9678 1.78597 6.93693 1.26667 6.9184 0.994604L6.88471 0.5H0L0.0288371 0.814748C0.0447244 0.98783 0.0730215 1.52068 0.0917265 1.9988C0.183033 4.33321 0.630576 7.33627 1.20851 9.49281C2.94353 15.9664 6.36163 20.5431 11.4219 23.168C14.3496 24.6868 18.0075 25.4962 21.9585 25.4995L22.6029 25.5V16.5598L22.8877 16.599C27.2626 17.2007 30.8053 20.0986 32.5776 24.5249C32.7197 24.8799 32.8542 25.2444 32.8765 25.3351L32.917 25.5H36.483C38.9956 25.5 40.049 25.4809 40.049 25.4353C40.049 25.2848 39.3791 23.3806 39.1225 22.8019C38.0562 20.3965 36.7689 18.5076 34.9531 16.6836C33.5277 15.2518 32.2225 14.2509 30.6665 13.3964C30.3038 13.1972 29.9713 13.0131 29.9277 12.9872C29.8732 12.9548 30.0519 12.8056 30.4972 12.5113C31.4732 11.8665 32.3684 11.1229 33.3346 10.1545C35.8627 7.62074 37.5586 4.68867 38.3445 1.49239C38.4577 1.03243 38.5502 0.621044 38.5502 0.578118C38.5502 0.514929 37.9332 0.5 35.3177 0.5H32.0852L31.8911 1.08453C30.6551 4.80701 28.0005 8.10216 25.0351 9.59508C24.4031 9.91325 23.4321 10.2425 22.9477 10.3029L22.6029 10.3459V0.5H16.1281V9.13309C16.1281 13.8813 16.1177 17.7662 16.105 17.7662C15.968 17.7662 14.9992 17.3871 14.4794 17.13C12.0194 15.9136 9.9259 13.39 8.61649 10.0624C7.71768 7.7783 7.13489 4.94784 6.98693 2.14868Z" fill="#212121"/>
</svg>
