<svg width="80" height="19" viewBox="0 0 80 19" fill="none" xmlns="http://www.w3.org/2000/svg">
<path d="M38.7065 3.87061V15.484H40.07L46.738 5.36537V15.484H47.8059V3.87061H46.4425L39.7745 14.0711V3.87061H38.7065ZM62.3177 3.87061H69.9546V4.85625H63.3851V9.22547H69.2978V10.2111H63.3851V14.4984H69.9546V15.484H62.3177V3.87061ZM71.8042 15.484H73.0526L75.4343 10.9831H78.9326V15.484H80.0001V3.87061H75.7629C75.1495 3.87061 74.5911 3.93649 74.0874 4.06762C73.5836 4.18808 73.1458 4.39633 72.7732 4.6919C72.4011 4.97671 72.111 5.34884 71.9028 5.80868C71.7058 6.25785 71.6073 6.81094 71.6073 7.4678C71.6073 9.32987 72.5215 10.452 74.3502 10.8353L71.8042 15.484ZM78.9326 4.85625V9.99749H75.7956C75.3684 9.99749 74.9632 9.95359 74.58 9.86627C74.2079 9.77848 73.8792 9.63612 73.5949 9.4391C73.3208 9.23085 73.1019 8.96256 72.9375 8.63441C72.7732 8.3057 72.6913 7.90043 72.6913 7.4186C72.6913 6.93677 72.7624 6.53151 72.9049 6.20328C73.058 5.87457 73.2662 5.61166 73.5291 5.41464C73.7919 5.21762 74.1093 5.07518 74.4814 4.98747C74.8647 4.90015 75.2865 4.85625 75.7464 4.85625H78.9326ZM49.6312 14.4872V18.0644H50.7108V15.484H59.561V18.0644H60.6407V14.4872H59.1792V3.87061H51.8563C51.845 4.32122 51.8333 4.73531 51.8217 5.14981C51.8114 5.52924 51.8007 5.90916 51.79 6.31691C51.7788 7.16935 51.7515 8.02723 51.7071 8.8909C51.6851 9.3781 51.6574 9.92631 51.6241 10.5349C51.5905 11.144 51.5301 11.7141 51.4413 12.2457C51.4081 12.4779 51.3472 12.7383 51.2585 13.026C51.1702 13.3138 51.0482 13.5796 50.8932 13.8229C50.7718 14.0112 50.6167 14.1721 50.4285 14.3048C50.2515 14.4267 50.0408 14.4872 49.7975 14.4872H49.6312ZM58.1166 4.867V14.4872H51.7071C51.8729 14.3326 52.0225 14.1277 52.1552 13.8732C52.2883 13.6186 52.3878 13.3303 52.4542 13.0095C52.5648 12.4891 52.637 11.9302 52.6702 11.3323C52.7033 10.7232 52.7311 10.1531 52.7531 9.62151L52.9193 4.867H58.1166Z" fill="#ED2E38"/>
<path d="M79.9937 1.0675H38.7066V0H79.9937V1.0675ZM10.7091 11.6129V0H9.0501L5.42012 6.8164L1.72475 0H0V11.6129H1.06788V1.00169L5.12459 8.5248H5.63373C6.12619 7.61579 6.62458 6.68528 7.12835 5.73229L8.14656 3.79421C8.65024 2.84179 9.14864 1.91078 9.64117 1.00169V11.6129H10.7091ZM25.35 11.6129H26.5984L28.9801 7.11197H32.4784V11.6129H33.5459V0H29.3082C28.6953 0 28.1369 0.0653232 27.6332 0.197016C27.1294 0.317474 26.6915 0.525245 26.3194 0.821293C25.9469 1.10554 25.6568 1.47815 25.4486 1.93807C25.2516 2.38724 25.153 2.93977 25.153 3.59719C25.153 5.4587 26.0673 6.58087 27.896 6.96423L25.35 11.6129ZM32.4784 0.985088V6.12688H29.3414C28.9142 6.12688 28.509 6.08299 28.1257 5.99519C27.7536 5.90788 27.425 5.76543 27.1407 5.56793C26.8666 5.36016 26.6476 5.09196 26.4833 4.76325C26.3194 4.43502 26.237 4.02975 26.237 3.54792C26.237 3.06609 26.3082 2.66082 26.4507 2.33211C26.6038 2.00388 26.812 1.74105 27.0749 1.54404C27.3377 1.34654 27.6551 1.2041 28.0272 1.11678C28.4105 1.02899 28.8323 0.985088 29.2921 0.985088H32.4784ZM15.9059 11.1794C16.5695 11.4685 17.3405 11.6129 18.2183 11.6129C19.0965 11.6129 19.8621 11.4685 20.515 11.1794C21.1792 10.8794 21.7302 10.4727 22.1697 9.95865C22.6193 9.44464 22.9562 8.834 23.1815 8.12739C23.4063 7.42069 23.5185 6.64964 23.5185 5.81422C23.5185 4.97929 23.4063 4.20831 23.1815 3.50162C22.9562 2.79444 22.6193 2.18436 22.1697 1.67035C21.7302 1.14559 21.1792 0.73887 20.515 0.449644C19.8621 0.149744 19.0965 0 18.2183 0C17.3405 0 16.5695 0.149744 15.9059 0.449644C15.2417 0.73887 14.6848 1.14021 14.2352 1.65422C13.7963 2.16824 13.4648 2.78377 13.2394 3.50162C13.0147 4.20831 12.9025 4.97929 12.9025 5.81422C12.9025 6.64964 13.0147 7.42069 13.2394 8.12739C13.4648 8.834 13.7963 9.44994 14.2352 9.9747C14.6848 10.4888 15.2417 10.8901 15.9059 11.1794ZM16.3394 1.33282C16.8748 1.07585 17.5009 0.947611 18.2183 0.947611C18.9356 0.947611 19.5569 1.07585 20.0816 1.33282C20.617 1.58986 21.0559 1.94345 21.3987 2.3931C21.7518 2.832 22.0141 3.346 22.1857 3.93513C22.3569 4.52378 22.4427 5.15046 22.4427 5.81422C22.4427 6.48874 22.3569 7.1208 22.1857 7.70992C22.0141 8.29857 21.7571 8.81258 21.4147 9.25148C21.0719 9.69093 20.6331 10.0386 20.0976 10.2956C19.5622 10.5419 18.9356 10.6653 18.2183 10.6653C17.5009 10.6653 16.8748 10.5365 16.3394 10.2795C15.8147 10.0225 15.3759 9.67481 15.0223 9.23591C14.6692 8.79645 14.4015 8.28244 14.2191 7.6938C14.048 7.10467 13.9626 6.47847 13.9626 5.81422C13.9626 5.15046 14.048 4.52378 14.2191 3.93513C14.3908 3.346 14.6531 2.832 15.0062 2.3931C15.3597 1.94345 15.8039 1.58986 16.3394 1.33282ZM0 15.4842H33.5459V14.4161H0V15.4842Z" fill="white"/>
</svg>
