<svg width="180" height="41" viewBox="0 0 180 41" fill="none" xmlns="http://www.w3.org/2000/svg">
<path d="M87.0896 8.70898V34.8392H90.1573L105.16 12.0722V34.8392H107.563V8.70898H104.495L89.4925 31.6602V8.70898H87.0896ZM140.215 8.70898H157.398V10.9267H142.616V20.7574H155.92V22.9751H142.616V32.6215H157.398V34.8392H140.215V8.70898ZM161.559 34.8392H164.368L169.727 24.7122H177.598V34.8392H180V8.70898H170.466C169.086 8.70898 167.83 8.85723 166.697 9.15227C165.563 9.4233 164.578 9.89187 163.74 10.5569C162.902 11.1977 162.25 12.035 161.781 13.0697C161.338 14.0803 161.116 15.3247 161.116 16.8027C161.116 20.9923 163.173 23.5172 167.288 24.3796L161.559 34.8392ZM177.598 10.9267V22.4945H170.54C169.579 22.4945 168.667 22.3957 167.805 22.1992C166.968 22.0017 166.228 21.6814 165.588 21.2381C164.972 20.7695 164.479 20.1659 164.109 19.4276C163.74 18.688 163.555 17.7761 163.555 16.692C163.555 15.6079 163.715 14.696 164.036 13.9575C164.38 13.2179 164.849 12.6264 165.44 12.1831C166.032 11.7398 166.746 11.4193 167.583 11.2219C168.446 11.0255 169.394 10.9267 170.429 10.9267H177.598ZM111.67 32.5962V40.645H114.099V34.8392H134.012V40.645H136.441V32.5962H133.153V8.70898H116.677C116.651 9.72286 116.625 10.6546 116.599 11.5872C116.576 12.4409 116.551 13.2957 116.527 14.2132C116.502 16.1312 116.441 18.0614 116.341 20.0046C116.291 21.1009 116.229 22.3343 116.154 23.7037C116.079 25.0742 115.943 26.357 115.743 27.553C115.668 28.0754 115.531 28.6613 115.331 29.3087C115.133 29.9562 114.858 30.5542 114.51 31.1017C114.236 31.5253 113.887 31.8873 113.464 32.1858C113.066 32.4603 112.592 32.5962 112.044 32.5962H111.67ZM130.762 10.9509V32.5962H116.341C116.714 32.2485 117.051 31.7875 117.349 31.2147C117.649 30.642 117.872 29.9934 118.022 29.2715C118.271 28.1005 118.433 26.8431 118.508 25.4978C118.582 24.1273 118.645 22.8446 118.694 21.6485L119.068 10.9509H130.762Z" fill="#ED2E38"/>
<path d="M179.986 2.40188H87.0898V0H179.986V2.40188ZM24.0954 26.129V0H20.3627L12.1953 15.3369L3.88069 0H0V26.129H2.40273V2.25381L11.5303 19.1808H12.6759C13.7839 17.1355 14.9053 15.0419 16.0388 12.8976L18.3298 8.53698C19.4631 6.39402 20.5844 4.29926 21.6926 2.25381V26.129H24.0954ZM57.0376 26.129H59.8464L65.2052 16.0019H73.0764V26.129H75.4782V0H65.9434C64.5644 0 63.308 0.146977 62.1747 0.443286C61.0412 0.714316 60.056 1.1818 59.2188 1.84791C58.3805 2.48747 57.7278 3.32585 57.2593 4.36067C56.816 5.3713 56.5943 6.61448 56.5943 8.09368C56.5943 12.2821 58.6515 14.8069 62.766 15.6695L57.0376 26.129ZM73.0764 2.21645V13.7855H66.0182C65.057 13.7855 64.1452 13.6867 63.2829 13.4892C62.4457 13.2927 61.7062 12.9722 61.0665 12.5278C60.4499 12.0604 59.9572 11.4569 59.5874 10.7173C59.2188 9.9788 59.0333 9.06693 59.0333 7.98282C59.0333 6.8987 59.1935 5.98684 59.514 5.24724C59.8585 4.50873 60.327 3.91737 60.9184 3.47408C61.5097 3.02971 62.224 2.70921 63.0612 2.51276C63.9237 2.31522 64.8726 2.21645 65.9073 2.21645H73.0764ZM35.7882 25.1536C37.2815 25.8041 39.0162 26.129 40.9912 26.129C42.9671 26.129 44.6897 25.8041 46.1588 25.1536C47.6532 24.4786 48.8931 23.5635 49.8817 22.407C50.8934 21.2504 51.6515 19.8765 52.1584 18.2866C52.6642 16.6966 52.9166 14.9617 52.9166 13.082C52.9166 11.2034 52.6642 9.4687 52.1584 7.87864C51.6515 6.28749 50.8934 4.91482 49.8817 3.75829C48.8931 2.57757 47.6532 1.66246 46.1588 1.0117C44.6897 0.336923 42.9671 0 40.9912 0C39.0162 0 37.2815 0.336923 35.7882 1.0117C34.2938 1.66246 33.0408 2.56548 32.0292 3.722C31.0418 4.87853 30.2957 6.26347 29.7888 7.87864C29.283 9.4687 29.0306 11.2034 29.0306 13.082C29.0306 14.9617 29.283 16.6966 29.7888 18.2866C30.2957 19.8765 31.0418 21.2624 32.0292 22.4431C33.0408 23.5998 34.2938 24.5028 35.7882 25.1536ZM36.7637 2.99884C37.9683 2.42067 39.3771 2.13212 40.9912 2.13212C42.6051 2.13212 44.0029 2.42067 45.1835 2.99884C46.3881 3.57719 47.3757 4.37277 48.147 5.38448C48.9415 6.372 49.5317 7.52851 49.9179 8.85405C50.303 10.1785 50.4962 11.5885 50.4962 13.082C50.4962 14.5997 50.303 16.0218 49.9179 17.3473C49.5317 18.6718 48.9535 19.8283 48.1832 20.8158C47.4118 21.8046 46.4244 22.5868 45.2196 23.1652C44.015 23.7193 42.6051 23.9969 40.9912 23.9969C39.3771 23.9969 37.9683 23.7072 36.7637 23.1289C35.5831 22.5507 34.5957 21.7683 33.8002 20.7808C33.0058 19.792 32.4035 18.6355 31.9931 17.311C31.608 15.9855 31.4159 14.5766 31.4159 13.082C31.4159 11.5885 31.608 10.1785 31.9931 8.85405C32.3793 7.52851 32.9695 6.372 33.7639 5.38448C34.5594 4.37277 35.5589 3.57719 36.7637 2.99884ZM0 34.8395H75.4782V32.4363H0V34.8395Z" fill="#212121"/>
</svg>
